<svg width="316" height="93" viewBox="0 0 316 93" fill="none" xmlns="http://www.w3.org/2000/svg">
<circle cx="36.4212" cy="25.3213" r="5.20302" fill="#3555A9"/>
<circle cx="54.4583" cy="25.3213" r="5.20302" fill="#3555A9"/>
<path d="M31.2181 69.7204V35.3805H40.9304V44.0522C40.9304 45.0928 41.971 47.8677 45.4397 47.8677C48.9084 47.8677 49.949 45.0928 49.949 44.0522V35.3805H59.6613V69.7204H49.949V59.6613C49.949 58.9675 48.9084 56.1926 45.4397 56.1926C41.971 56.1926 40.9304 58.9675 40.9304 59.6613V69.7204H31.2181Z" fill="#3555A9"/>
<path d="M10.406 46.1334C10.406 65.482 25.9344 81.1671 45.0896 81.1671C59.1536 81.1671 71.2145 72.5076 76.6578 60.355H87.3254C81.5105 78.8745 64.6452 92.2668 44.7459 92.2668C20.0334 92.2668 0 71.6122 0 46.1334C0 20.6546 20.0334 0 44.7459 0C64.6452 0 81.5105 13.3923 87.3254 31.9118H76.7963C71.3977 19.6499 59.2322 11.0998 45.0896 11.0998C25.9344 11.0998 10.406 26.7849 10.406 46.1334Z" fill="#3555A9"/>
<path d="M115.255 35.4271L118.755 36.5368C118.219 38.488 117.325 39.9391 116.073 40.8903C114.829 41.8333 113.247 42.3049 111.329 42.3049C108.955 42.3049 107.004 41.496 105.475 39.8781C103.947 38.2522 103.183 36.0328 103.183 33.2199C103.183 30.2444 103.951 27.9356 105.488 26.2934C107.024 24.6431 109.044 23.8179 111.548 23.8179C113.735 23.8179 115.512 24.4642 116.877 25.7568C117.69 26.521 118.3 27.6185 118.707 29.0494L115.134 29.903C114.922 28.9762 114.479 28.2445 113.804 27.708C113.138 27.1714 112.325 26.9031 111.365 26.9031C110.04 26.9031 108.963 27.3787 108.134 28.3299C107.313 29.2811 106.902 30.8216 106.902 32.9516C106.902 35.2117 107.309 36.8214 108.122 37.7807C108.935 38.74 109.992 39.2196 111.292 39.2196C112.252 39.2196 113.077 38.9148 113.768 38.305C114.459 37.6953 114.955 36.736 115.255 35.4271ZM121.755 42V24.1228H125.365V42H121.755ZM121.341 23.0984L123.023 19.4522H126.865L123.511 23.0984H121.341ZM128.828 42V24.1228H136.425C138.336 24.1228 139.722 24.2854 140.584 24.6105C141.453 24.9276 142.149 25.4967 142.669 26.3178C143.189 27.1389 143.449 28.0779 143.449 29.1347C143.449 30.4761 143.055 31.5858 142.266 32.4638C141.478 33.3337 140.299 33.8825 138.73 34.1101C139.51 34.5654 140.153 35.0654 140.657 35.61C141.169 36.1547 141.856 37.1222 142.718 38.5124L144.9 42H140.584L137.974 38.1099C137.047 36.7198 136.413 35.8458 136.072 35.4881C135.73 35.1223 135.368 34.8743 134.986 34.7442C134.604 34.606 133.999 34.5369 133.169 34.5369H132.438V42H128.828ZM132.438 31.6834H135.108C136.84 31.6834 137.921 31.6102 138.352 31.4639C138.783 31.3176 139.12 31.0655 139.364 30.7078C139.608 30.3501 139.73 29.903 139.73 29.3664C139.73 28.7648 139.567 28.2811 139.242 27.9153C138.925 27.5413 138.474 27.3055 137.889 27.208C137.596 27.1673 136.718 27.147 135.255 27.147H132.438V31.6834ZM158.302 35.4271L161.802 36.5368C161.266 38.488 160.371 39.9391 159.119 40.8903C157.876 41.8333 156.294 42.3049 154.376 42.3049C152.002 42.3049 150.051 41.496 148.522 39.8781C146.994 38.2522 146.23 36.0328 146.23 33.2199C146.23 30.2444 146.998 27.9356 148.534 26.2934C150.071 24.6431 152.091 23.8179 154.595 23.8179C156.782 23.8179 158.558 24.4642 159.924 25.7568C160.737 26.521 161.347 27.6185 161.753 29.0494L158.18 29.903C157.969 28.9762 157.526 28.2445 156.851 27.708C156.185 27.1714 155.372 26.9031 154.412 26.9031C153.087 26.9031 152.01 27.3787 151.181 28.3299C150.36 29.2811 149.949 30.8216 149.949 32.9516C149.949 35.2117 150.356 36.8214 151.169 37.7807C151.981 38.74 153.038 39.2196 154.339 39.2196C155.298 39.2196 156.124 38.9148 156.815 38.305C157.506 37.6953 158.002 36.736 158.302 35.4271ZM164.887 24.1228H168.497V33.8052C168.497 35.3418 168.542 36.3377 168.631 36.7929C168.786 37.5246 169.151 38.114 169.729 38.5611C170.314 39.0001 171.111 39.2196 172.119 39.2196C173.143 39.2196 173.915 39.0123 174.436 38.5977C174.956 38.175 175.269 37.6587 175.375 37.049C175.48 36.4393 175.533 35.4271 175.533 34.0126V24.1228H179.143V33.5126C179.143 35.6588 179.045 37.175 178.85 38.0612C178.655 38.9473 178.293 39.6952 177.765 40.305C177.245 40.9147 176.545 41.4025 175.667 41.7683C174.789 42.126 173.643 42.3049 172.229 42.3049C170.521 42.3049 169.225 42.1098 168.338 41.7195C167.46 41.3212 166.765 40.809 166.253 40.183C165.741 39.5489 165.404 38.8863 165.241 38.1953C165.005 37.171 164.887 35.6588 164.887 33.6589V24.1228ZM183.057 42V24.2691H186.667V38.9879H195.642V42H183.057ZM197.496 33.1711C197.496 31.3501 197.768 29.8217 198.313 28.586C198.719 27.6754 199.272 26.8584 199.971 26.1349C200.678 25.4113 201.451 24.8748 202.288 24.5252C203.402 24.0537 204.686 23.8179 206.142 23.8179C208.776 23.8179 210.881 24.6349 212.458 26.269C214.044 27.9031 214.836 30.1753 214.836 33.0858C214.836 35.9718 214.052 38.2319 212.483 39.866C210.914 41.4919 208.816 42.3049 206.19 42.3049C203.532 42.3049 201.418 41.496 199.849 39.8781C198.28 38.2522 197.496 36.0165 197.496 33.1711ZM201.215 33.0492C201.215 35.0735 201.682 36.61 202.617 37.6587C203.552 38.6993 204.739 39.2196 206.178 39.2196C207.617 39.2196 208.796 38.7034 209.715 37.6709C210.641 36.6303 211.105 35.0735 211.105 33.0004C211.105 30.9517 210.654 29.4233 209.751 28.4152C208.857 27.4072 207.666 26.9031 206.178 26.9031C204.69 26.9031 203.491 27.4153 202.581 28.4396C201.67 29.4559 201.215 30.9924 201.215 33.0492ZM216.751 36.1832L220.263 35.8417C220.474 37.0206 220.901 37.8864 221.543 38.4392C222.194 38.992 223.068 39.2684 224.165 39.2684C225.328 39.2684 226.202 39.0245 226.787 38.5367C227.38 38.0408 227.677 37.4636 227.677 36.8051C227.677 36.3824 227.551 36.0247 227.299 35.732C227.055 35.4312 226.624 35.171 226.007 34.9515C225.584 34.8052 224.62 34.5451 223.116 34.1711C221.182 33.6914 219.824 33.102 219.043 32.4029C217.946 31.4192 217.397 30.22 217.397 28.8055C217.397 27.8949 217.653 27.0454 218.165 26.2568C218.686 25.4601 219.43 24.8544 220.397 24.4398C221.373 24.0252 222.547 23.8179 223.921 23.8179C226.165 23.8179 227.852 24.3097 228.982 25.2934C230.12 26.2771 230.718 27.5901 230.775 29.2323L227.165 29.3908C227.011 28.4722 226.677 27.8137 226.165 27.4153C225.661 27.0088 224.901 26.8056 223.885 26.8056C222.836 26.8056 222.015 27.021 221.421 27.4519C221.039 27.7283 220.848 28.0982 220.848 28.5616C220.848 28.9843 221.027 29.3461 221.385 29.6469C221.84 30.029 222.946 30.4274 224.702 30.842C226.458 31.2566 227.754 31.6875 228.592 32.1346C229.437 32.5736 230.096 33.1793 230.567 33.9516C231.047 34.7158 231.287 35.6629 231.287 36.7929C231.287 37.8173 231.002 38.7766 230.433 39.6708C229.864 40.5651 229.059 41.2317 228.019 41.6707C226.978 42.1016 225.681 42.3171 224.129 42.3171C221.869 42.3171 220.133 41.7968 218.922 40.7562C217.71 39.7074 216.987 38.1831 216.751 36.1832ZM241.262 24.1228H247.859C249.347 24.1228 250.481 24.2366 251.262 24.4642C252.31 24.7731 253.209 25.3219 253.957 26.1105C254.704 26.8991 255.274 27.8665 255.664 29.0128C256.054 30.1509 256.249 31.5574 256.249 33.2321C256.249 34.7036 256.066 35.9718 255.7 37.0368C255.253 38.3376 254.615 39.3904 253.786 40.1952C253.16 40.8049 252.314 41.2805 251.249 41.622C250.453 41.874 249.388 42 248.054 42H241.262V24.1228ZM244.872 27.147V38.9879H247.567C248.575 38.9879 249.302 38.931 249.749 38.8172C250.335 38.6709 250.818 38.4229 251.201 38.0733C251.591 37.7238 251.908 37.1506 252.152 36.3539C252.396 35.5491 252.518 34.4556 252.518 33.0736C252.518 31.6915 252.396 30.6306 252.152 29.8908C251.908 29.151 251.566 28.5738 251.127 28.1592C250.688 27.7445 250.131 27.4641 249.457 27.3177C248.953 27.2039 247.965 27.147 246.493 27.147H244.872ZM259.322 42V24.1228H272.578V27.147H262.932V31.1102H271.907V34.1223H262.932V38.9879H272.919V42H259.322ZM103.829 71V53.1228H107.439V60.159H114.512V53.1228H118.121V71H114.512V63.1833H107.439V71H103.829ZM121.133 62.1711C121.133 60.3501 121.406 58.8217 121.95 57.586C122.357 56.6754 122.91 55.8584 123.609 55.1349C124.316 54.4113 125.088 53.8748 125.926 53.5252C127.04 53.0537 128.324 52.8179 129.779 52.8179C132.413 52.8179 134.519 53.6349 136.096 55.269C137.681 56.9031 138.474 59.1753 138.474 62.0858C138.474 64.9718 137.689 67.2319 136.12 68.866C134.551 70.4919 132.454 71.3049 129.828 71.3049C127.17 71.3049 125.056 70.496 123.487 68.8781C121.918 67.2522 121.133 65.0165 121.133 62.1711ZM124.853 62.0492C124.853 64.0735 125.32 65.61 126.255 66.6587C127.19 67.6993 128.377 68.2196 129.816 68.2196C131.255 68.2196 132.434 67.7034 133.352 66.6709C134.279 65.6303 134.742 64.0735 134.742 62.0004C134.742 59.9517 134.291 58.4233 133.389 57.4152C132.495 56.4072 131.304 55.9031 129.816 55.9031C128.328 55.9031 127.129 56.4153 126.218 57.4396C125.308 58.4559 124.853 59.9924 124.853 62.0492ZM140.389 65.1832L143.901 64.8417C144.112 66.0206 144.539 66.8864 145.181 67.4392C145.831 67.992 146.705 68.2684 147.803 68.2684C148.965 68.2684 149.839 68.0245 150.425 67.5367C151.018 67.0408 151.315 66.4636 151.315 65.8051C151.315 65.3824 151.189 65.0247 150.937 64.732C150.693 64.4312 150.262 64.171 149.644 63.9515C149.221 63.8052 148.258 63.5451 146.754 63.1711C144.819 62.6914 143.462 62.102 142.681 61.4029C141.584 60.4192 141.035 59.22 141.035 57.8055C141.035 56.8949 141.291 56.0454 141.803 55.2568C142.323 54.4601 143.067 53.8544 144.035 53.4398C145.01 53.0252 146.185 52.8179 147.559 52.8179C149.803 52.8179 151.49 53.3097 152.62 54.2934C153.758 55.2771 154.355 56.5901 154.412 58.2323L150.803 58.3908C150.648 57.4722 150.315 56.8137 149.803 56.4153C149.299 56.0088 148.539 55.8056 147.522 55.8056C146.474 55.8056 145.652 56.021 145.059 56.4519C144.677 56.7283 144.486 57.0982 144.486 57.5616C144.486 57.9843 144.665 58.3461 145.022 58.6469C145.478 59.029 146.583 59.4274 148.339 59.842C150.095 60.2566 151.392 60.6875 152.229 61.1346C153.075 61.5736 153.733 62.1793 154.205 62.9516C154.685 63.7158 154.924 64.6629 154.924 65.7929C154.924 66.8173 154.64 67.7766 154.071 68.6708C153.502 69.5651 152.697 70.2317 151.656 70.6707C150.616 71.1016 149.319 71.3171 147.766 71.3171C145.506 71.3171 143.77 70.7968 142.559 69.7562C141.348 68.7074 140.624 67.1831 140.389 65.1832ZM157.961 71V53.1228H163.753C165.948 53.1228 167.379 53.2122 168.046 53.391C169.07 53.6593 169.928 54.2447 170.619 55.1471C171.31 56.0413 171.655 57.1998 171.655 58.6225C171.655 59.72 171.456 60.6427 171.058 61.3907C170.659 62.1386 170.151 62.728 169.534 63.1589C168.924 63.5816 168.302 63.8621 167.668 64.0003C166.806 64.171 165.558 64.2564 163.924 64.2564H161.57V71H157.961ZM161.57 56.147V61.22H163.546C164.969 61.22 165.92 61.1265 166.4 60.9395C166.879 60.7525 167.253 60.4598 167.521 60.0615C167.798 59.6631 167.936 59.1997 167.936 58.6713C167.936 58.0209 167.745 57.4844 167.363 57.0616C166.981 56.6389 166.497 56.3746 165.912 56.269C165.481 56.1877 164.615 56.147 163.314 56.147H161.57ZM174.509 71V53.1228H178.118V71H174.509ZM185.594 71V56.147H180.289V53.1228H194.496V56.147H189.203V71H185.594ZM211.105 71H207.178L205.617 66.9392H198.471L196.996 71H193.167L200.13 53.1228H203.947L211.105 71ZM204.459 63.9271L201.995 57.2933L199.581 63.9271H204.459ZM213.129 71V53.2691H216.739V67.9879H225.714V71H213.129ZM228.189 71V53.1228H231.799V71H228.189ZM235.238 53.1228H241.835C243.323 53.1228 244.457 53.2366 245.237 53.4642C246.286 53.7731 247.184 54.3219 247.932 55.1105C248.68 55.8991 249.249 56.8665 249.64 58.0128C250.03 59.1509 250.225 60.5574 250.225 62.2321C250.225 63.7036 250.042 64.9718 249.676 66.0368C249.229 67.3376 248.591 68.3904 247.762 69.1952C247.136 69.8049 246.29 70.2805 245.225 70.622C244.428 70.874 243.364 71 242.03 71H235.238V53.1228ZM238.847 56.147V67.9879H241.542C242.551 67.9879 243.278 67.931 243.725 67.8172C244.311 67.6709 244.794 67.4229 245.176 67.0733C245.567 66.7238 245.884 66.1506 246.128 65.3539C246.371 64.5491 246.493 63.4556 246.493 62.0736C246.493 60.6915 246.371 59.6306 246.128 58.8908C245.884 58.151 245.542 57.5738 245.103 57.1592C244.664 56.7445 244.107 56.4641 243.433 56.3177C242.929 56.2039 241.941 56.147 240.469 56.147H238.847ZM269.419 71H265.493L263.932 66.9392H256.786L255.31 71H251.481L258.444 53.1228H262.261L269.419 71ZM262.773 63.9271L260.31 57.2933L257.895 63.9271H262.773ZM271.334 53.1228H277.931C279.419 53.1228 280.553 53.2366 281.333 53.4642C282.382 53.7731 283.28 54.3219 284.028 55.1105C284.776 55.8991 285.345 56.8665 285.736 58.0128C286.126 59.1509 286.321 60.5574 286.321 62.2321C286.321 63.7036 286.138 64.9718 285.772 66.0368C285.325 67.3376 284.687 68.3904 283.858 69.1952C283.232 69.8049 282.386 70.2805 281.321 70.622C280.524 70.874 279.459 71 278.126 71H271.334V53.1228ZM274.943 56.147V67.9879H277.638C278.646 67.9879 279.374 67.931 279.821 67.8172C280.407 67.6709 280.89 67.4229 281.272 67.0733C281.663 66.7238 281.98 66.1506 282.224 65.3539C282.467 64.5491 282.589 63.4556 282.589 62.0736C282.589 60.6915 282.467 59.6306 282.224 58.8908C281.98 58.151 281.638 57.5738 281.199 57.1592C280.76 56.7445 280.203 56.4641 279.529 56.3177C279.024 56.2039 278.037 56.147 276.565 56.147H274.943ZM289.394 71V53.1228H302.649V56.147H293.004V60.1102H301.979V63.1223H293.004V67.9879H302.991V71H289.394Z" fill="#3555A9"/>
</svg>
