<svg width="104" height="119" viewBox="0 0 104 119" fill="none" xmlns="http://www.w3.org/2000/svg">
<path d="M13.6456 110.166C13.1083 110.166 12.6923 110.028 12.3976 109.75C12.1203 109.456 11.9816 109.04 11.9816 108.502V98.6743C11.9816 98.137 12.1203 97.7297 12.3976 97.4523C12.675 97.175 13.065 97.0363 13.5676 97.0363C14.0703 97.0363 14.4603 97.175 14.7376 97.4523C15.015 97.7297 15.1536 98.137 15.1536 98.6743V100.312H14.8936C15.1363 99.2723 15.613 98.4837 16.3236 97.9463C17.0343 97.409 17.979 97.0883 19.1576 96.9843C19.5216 96.9497 19.8076 97.045 20.0156 97.2703C20.241 97.4783 20.371 97.8077 20.4056 98.2583C20.4403 98.6917 20.3363 99.047 20.0936 99.3243C19.8683 99.5843 19.5216 99.7403 19.0536 99.7923L18.4816 99.8443C17.4243 99.9483 16.627 100.278 16.0896 100.832C15.5523 101.37 15.2836 102.132 15.2836 103.12V108.502C15.2836 109.04 15.145 109.456 14.8676 109.75C14.5903 110.028 14.183 110.166 13.6456 110.166ZM28.2261 110.218C26.7875 110.218 25.5481 109.95 24.5081 109.412C23.4681 108.875 22.6621 108.112 22.0901 107.124C21.5355 106.136 21.2581 104.966 21.2581 103.614C21.2581 102.297 21.5268 101.144 22.0641 100.156C22.6188 99.1683 23.3728 98.397 24.3261 97.8423C25.2968 97.2703 26.3975 96.9843 27.6281 96.9843C28.5295 96.9843 29.3355 97.1317 30.0461 97.4263C30.7741 97.721 31.3895 98.1457 31.8921 98.7003C32.4121 99.255 32.8021 99.931 33.0621 100.728C33.3395 101.508 33.4781 102.392 33.4781 103.38C33.4781 103.692 33.3655 103.935 33.1401 104.108C32.9321 104.264 32.6288 104.342 32.2301 104.342H23.8841V102.47H31.1901L30.7741 102.86C30.7741 102.063 30.6528 101.396 30.4101 100.858C30.1848 100.321 29.8468 99.9137 29.3961 99.6363C28.9628 99.3417 28.4168 99.1943 27.7581 99.1943C27.0301 99.1943 26.4061 99.3677 25.8861 99.7143C25.3835 100.044 24.9935 100.52 24.7161 101.144C24.4561 101.751 24.3261 102.479 24.3261 103.328V103.51C24.3261 104.932 24.6555 105.998 25.3141 106.708C25.9901 107.402 26.9781 107.748 28.2781 107.748C28.7288 107.748 29.2315 107.696 29.7861 107.592C30.3581 107.471 30.8955 107.272 31.3981 106.994C31.7621 106.786 32.0828 106.7 32.3601 106.734C32.6375 106.752 32.8541 106.847 33.0101 107.02C33.1835 107.194 33.2875 107.41 33.3221 107.67C33.3568 107.913 33.3048 108.164 33.1661 108.424C33.0448 108.684 32.8281 108.91 32.5161 109.1C31.9095 109.482 31.2075 109.768 30.4101 109.958C29.6301 110.132 28.9021 110.218 28.2261 110.218Z" fill="#6594F4"/>
<path d="M38.1319 109.958C37.5599 109.958 37.1179 109.811 36.8059 109.516C36.5113 109.204 36.3639 108.762 36.3639 108.19V93.3963C36.3639 92.8243 36.5113 92.391 36.8059 92.0963C37.1179 91.7843 37.5599 91.6283 38.1319 91.6283H44.3719C45.6546 91.6283 46.7466 91.819 47.6479 92.2003C48.5493 92.5817 49.2339 93.1277 49.7019 93.8383C50.1873 94.549 50.4299 95.3983 50.4299 96.3863C50.4299 97.4957 50.1093 98.4317 49.4679 99.1943C48.8266 99.957 47.9513 100.468 46.8419 100.728V100.338C48.1246 100.529 49.1213 101.014 49.8319 101.794C50.5426 102.574 50.8979 103.588 50.8979 104.836C50.8979 106.466 50.3433 107.731 49.2339 108.632C48.1419 109.516 46.6166 109.958 44.6579 109.958H38.1319ZM39.5619 107.436H44.2419C45.4206 107.436 46.2873 107.211 46.8419 106.76C47.3966 106.292 47.6739 105.599 47.6739 104.68C47.6739 103.744 47.3966 103.051 46.8419 102.6C46.2873 102.15 45.4206 101.924 44.2419 101.924H39.5619V107.436ZM39.5619 99.4023H43.7999C44.9439 99.4023 45.7933 99.1857 46.3479 98.7523C46.9199 98.3017 47.2059 97.643 47.2059 96.7763C47.2059 95.9097 46.9199 95.2597 46.3479 94.8263C45.7933 94.3757 44.9439 94.1503 43.7999 94.1503H39.5619V99.4023ZM58.5543 110.218C57.497 110.218 56.6217 110.028 55.9283 109.646C55.235 109.248 54.715 108.658 54.3683 107.878C54.039 107.098 53.8743 106.128 53.8743 104.966V98.6743C53.8743 98.1197 54.013 97.7123 54.2903 97.4523C54.5677 97.175 54.9663 97.0363 55.4863 97.0363C56.0063 97.0363 56.405 97.175 56.6823 97.4523C56.977 97.7123 57.1243 98.1197 57.1243 98.6743V105.018C57.1243 105.92 57.3063 106.587 57.6703 107.02C58.0343 107.454 58.615 107.67 59.4123 107.67C60.279 107.67 60.9897 107.376 61.5443 106.786C62.099 106.18 62.3763 105.382 62.3763 104.394V98.6743C62.3763 98.1197 62.515 97.7123 62.7923 97.4523C63.0697 97.175 63.4683 97.0363 63.9883 97.0363C64.5083 97.0363 64.907 97.175 65.1843 97.4523C65.479 97.7123 65.6263 98.1197 65.6263 98.6743V108.502C65.6263 109.612 65.0977 110.166 64.0403 110.166C63.5377 110.166 63.1477 110.028 62.8703 109.75C62.593 109.456 62.4543 109.04 62.4543 108.502V106.526L62.8183 107.306C62.4543 108.242 61.8997 108.962 61.1543 109.464C60.4263 109.967 59.5597 110.218 58.5543 110.218ZM70.621 110.14C70.101 110.14 69.7023 109.984 69.425 109.672C69.1476 109.36 69.009 108.927 69.009 108.372V98.8303C69.009 98.2583 69.1476 97.825 69.425 97.5303C69.7023 97.2183 70.101 97.0623 70.621 97.0623C71.141 97.0623 71.5396 97.2183 71.817 97.5303C72.1116 97.825 72.259 98.2583 72.259 98.8303V108.372C72.259 108.927 72.1203 109.36 71.843 109.672C71.5656 109.984 71.1583 110.14 70.621 110.14ZM70.621 94.6443C70.0143 94.6443 69.5376 94.497 69.191 94.2023C68.8616 93.8903 68.697 93.4657 68.697 92.9283C68.697 92.3737 68.8616 91.949 69.191 91.6543C69.5376 91.3597 70.0143 91.2123 70.621 91.2123C71.245 91.2123 71.7216 91.3597 72.051 91.6543C72.3803 91.949 72.545 92.3737 72.545 92.9283C72.545 93.4657 72.3803 93.8903 72.051 94.2023C71.7216 94.497 71.245 94.6443 70.621 94.6443ZM79.9779 110.218C78.5393 110.218 77.4559 109.811 76.7279 108.996C75.9999 108.164 75.6359 106.951 75.6359 105.356V93.0583C75.6359 92.521 75.7746 92.1137 76.0519 91.8363C76.3293 91.559 76.7279 91.4203 77.2479 91.4203C77.7679 91.4203 78.1666 91.559 78.4439 91.8363C78.7386 92.1137 78.8859 92.521 78.8859 93.0583V105.2C78.8859 105.998 79.0506 106.587 79.3799 106.968C79.7266 107.35 80.2119 107.54 80.8359 107.54C80.9746 107.54 81.1046 107.54 81.2259 107.54C81.3473 107.523 81.4686 107.506 81.5899 107.488C81.8326 107.454 81.9973 107.523 82.0839 107.696C82.1706 107.852 82.2139 108.182 82.2139 108.684C82.2139 109.118 82.1273 109.456 81.9539 109.698C81.7806 109.941 81.4946 110.088 81.0959 110.14C80.9226 110.158 80.7406 110.175 80.5499 110.192C80.3593 110.21 80.1686 110.218 79.9779 110.218ZM88.6997 110.218C87.5904 110.218 86.611 109.95 85.7617 109.412C84.9297 108.875 84.2797 108.112 83.8117 107.124C83.3437 106.119 83.1097 104.94 83.1097 103.588C83.1097 102.219 83.3437 101.049 83.8117 100.078C84.2797 99.0903 84.9297 98.3277 85.7617 97.7903C86.611 97.253 87.5904 96.9843 88.6997 96.9843C89.757 96.9843 90.6757 97.2443 91.4557 97.7643C92.253 98.2843 92.7904 98.969 93.0677 99.8183H92.7817V93.0583C92.7817 92.521 92.9204 92.1137 93.1977 91.8363C93.475 91.559 93.8737 91.4203 94.3937 91.4203C94.9137 91.4203 95.3124 91.559 95.5897 91.8363C95.8844 92.1137 96.0317 92.521 96.0317 93.0583V108.502C96.0317 109.04 95.893 109.456 95.6157 109.75C95.3384 110.028 94.9397 110.166 94.4197 110.166C93.8997 110.166 93.501 110.028 93.2237 109.75C92.9464 109.456 92.8077 109.04 92.8077 108.502V106.474L93.0937 107.254C92.8337 108.156 92.305 108.875 91.5077 109.412C90.7104 109.95 89.7744 110.218 88.6997 110.218ZM89.6097 107.748C90.251 107.748 90.8144 107.592 91.2997 107.28C91.785 106.968 92.1577 106.509 92.4177 105.902C92.695 105.278 92.8337 104.507 92.8337 103.588C92.8337 102.202 92.539 101.17 91.9497 100.494C91.3604 99.801 90.5804 99.4543 89.6097 99.4543C88.9684 99.4543 88.405 99.6103 87.9197 99.9223C87.4344 100.217 87.053 100.676 86.7757 101.3C86.5157 101.907 86.3857 102.67 86.3857 103.588C86.3857 104.958 86.6804 105.998 87.2697 106.708C87.859 107.402 88.639 107.748 89.6097 107.748Z" fill="#3555A9"/>
<path d="M51.7029 69.9452C50.8667 69.4217 50.2601 68.7063 49.8832 67.7964C47.8588 63.9625 45.802 60.1635 43.3558 56.5415C42.4696 55.1829 41.2964 54.1559 39.8287 53.4579C36.2143 51.7005 32.6822 49.7885 29.0977 47.9663C28.571 47.6597 27.9994 47.5076 27.3878 47.5076C26.7788 47.5076 26.2072 47.6597 25.6805 47.9663C25.4159 48.1109 25.1787 48.2928 24.9666 48.5122C24.7569 48.7291 24.5846 48.9709 24.4474 49.2401C24.3101 49.5093 24.2152 49.791 24.1603 50.0901C24.1079 50.3868 24.1004 50.6859 24.1378 50.985C24.1753 51.2991 24.2527 51.6032 24.3725 51.8974C24.4923 52.1915 24.6495 52.4633 24.8418 52.715C25.034 52.9668 25.2586 53.1912 25.5107 53.3831C25.7628 53.575 26.0374 53.7296 26.332 53.8493C29.3099 55.3374 32.3128 56.7932 35.2358 58.4061C35.5553 58.5482 35.8124 58.77 35.9996 59.0642C36.1893 59.3583 36.2841 59.6824 36.2792 60.0339C36.3091 60.3654 36.2442 60.682 36.0845 60.9761C35.9272 61.2703 35.7 61.4996 35.4055 61.6617C35.0885 61.8187 34.7515 61.8885 34.3971 61.876C34.0426 61.8611 33.7106 61.7614 33.4086 61.5794L22.9547 56.1202C22.4005 55.8011 21.8264 55.5319 21.2323 55.305C19.3227 54.6868 18.2943 53.2535 17.3882 51.5858C15.284 47.7045 13.1048 43.913 10.9656 40.1289C10.8408 39.8747 10.681 39.6453 10.4863 39.4434C10.2891 39.239 10.067 39.067 9.81986 38.9324C9.57025 38.7953 9.30815 38.7006 9.03108 38.6432C8.754 38.5884 8.47194 38.5759 8.19237 38.6083C7.93776 38.6183 7.68814 38.6657 7.44851 38.7529C7.20888 38.8377 6.98672 38.9573 6.78454 39.1119C6.57985 39.2639 6.40512 39.4434 6.25535 39.6503C6.10807 39.8572 5.99325 40.0816 5.91587 40.3234C5.78108 40.7895 5.74613 41.2632 5.81353 41.7418C5.87843 42.2229 6.03818 42.6691 6.2903 43.0829C8.47693 47.8591 10.696 52.6128 12.8677 57.3965C13.4942 58.6354 14.4078 59.6026 15.6085 60.3006C22.2033 64.5982 28.8456 68.8209 35.5852 72.8992C35.9971 73.111 36.3166 73.4201 36.5413 73.824C36.7684 74.2278 36.8633 74.6591 36.8258 75.1202C36.8258 77.977 36.9906 80.8163 37.0804 83.7054" stroke="#3555A9" stroke-width="3.68649" stroke-linecap="round" stroke-linejoin="round"/>
<path d="M66.3354 83.6805C66.3354 80.5545 66.5151 77.446 66.62 74.33C66.62 73.5174 67.3464 73.2481 67.8781 72.9141C73.1724 69.5788 78.4867 66.3307 83.7586 62.9056C85.3886 61.8636 86.9487 60.8141 88.5238 59.7397C89.37 59.1888 90.0065 58.4559 90.4334 57.5436C92.7098 52.563 94.9464 47.5575 97.2379 42.5868C97.3752 42.34 97.475 42.0783 97.5324 41.8016C97.5898 41.5249 97.6048 41.2457 97.5774 40.964C97.5474 40.6823 97.48 40.4106 97.3702 40.1514C97.2579 39.8921 97.1106 39.6528 96.9284 39.4384C96.7561 39.239 96.5564 39.072 96.3343 38.9324C96.1096 38.7928 95.8725 38.6881 95.6179 38.6208C95.3633 38.5535 95.1037 38.5236 94.8416 38.5311C94.577 38.541 94.3224 38.5884 94.0728 38.6732C92.9545 38.9324 92.4403 39.9096 91.9835 40.7721C89.7319 45.0123 87.2982 49.0805 84.9742 53.2634C84.6323 53.8567 84.1505 54.298 83.529 54.5896C79.1158 56.883 74.7025 59.1689 70.2843 61.4398C69.9573 61.6517 69.5979 61.7763 69.211 61.8187C68.8216 61.8586 68.4447 61.8087 68.0802 61.6691C67.7882 61.5395 67.5461 61.3426 67.3589 61.0833C67.1716 60.8216 67.0643 60.5324 67.0343 60.2133C67.0044 59.8918 67.0593 59.5877 67.1966 59.2985C67.3364 59.0068 67.5386 58.7725 67.8032 58.593C68.8266 57.9648 69.88 57.394 70.9608 56.8755C73.1574 55.7363 75.4514 54.7691 77.5632 53.4504C77.7429 53.3457 77.9101 53.2261 78.0674 53.0889C78.2221 52.9543 78.3644 52.8048 78.4917 52.6427C78.619 52.4782 78.7314 52.3062 78.8262 52.1217C78.9186 51.9373 78.9959 51.7453 79.0534 51.5484C79.1108 51.349 79.1507 51.1471 79.1707 50.9402C79.1881 50.7358 79.1881 50.5289 79.1682 50.3244C79.1482 50.1175 79.1083 49.9156 79.0509 49.7187C78.9935 49.5193 78.9161 49.3298 78.8212 49.1454C78.1597 47.7619 75.9806 47.1686 74.4879 47.884C70.4641 49.8209 66.5551 51.9522 62.5487 53.939C61.1135 54.637 60.3197 55.998 59.4959 57.2669C57.1945 60.8066 55.2699 64.5907 53.1882 68.2351C53.0209 68.6215 52.7913 68.963 52.4942 69.2622C52.1597 69.5713 51.9176 69.9427 51.7728 70.3764C51.6281 70.8102 51.5981 71.2514 51.678 71.7026C51.678 75.2349 51.678 78.7572 51.678 82.282C51.678 82.6634 51.7429 83.0448 51.7678 83.4212" stroke="#3555A9" stroke-width="3.68649" stroke-linecap="round" stroke-linejoin="round"/>
<path d="M81.4972 39.5257C81.4972 36.2227 81.6694 32.9023 81.4972 29.6069C81.4697 28.884 81.3649 28.171 81.1801 27.4706C80.9929 26.7701 80.7333 26.0995 80.3988 25.4564C80.0644 24.8132 79.665 24.215 79.1982 23.6591C78.7289 23.1057 78.2072 22.6096 77.6281 22.1709C77.0665 21.7222 76.5023 21.251 75.9083 20.7625C75.9881 20.2066 76.1778 19.6881 76.4699 19.207C76.7445 18.661 76.9267 18.0852 77.0116 17.4794C77.0989 16.8762 77.0864 16.2729 76.9741 15.6722C76.8618 15.0714 76.6571 14.5031 76.3576 13.9696C76.0605 13.4361 75.6836 12.9625 75.2293 12.5512C74.805 12.1773 74.3357 11.8732 73.8215 11.6339C73.3048 11.397 72.7681 11.24 72.2064 11.1602C71.6448 11.078 71.0857 11.0805 70.524 11.1627C69.9649 11.2475 69.4282 11.4095 68.914 11.6488C68.6295 11.7884 68.3599 11.9504 68.1053 12.1349C67.8482 12.3219 67.6085 12.5263 67.3864 12.7506C67.1667 12.9775 66.9645 13.2193 66.7848 13.4785C66.6026 13.7353 66.4453 14.0095 66.3105 14.2937C66.1757 14.5803 66.0634 14.8745 65.9785 15.1786C65.8937 15.4802 65.8338 15.7893 65.8013 16.1034C65.7664 16.4175 65.7589 16.7316 65.7788 17.0482C65.7988 17.3623 65.8437 17.6739 65.9161 17.9805C65.9885 18.2871 66.0834 18.5862 66.2057 18.8779C66.328 19.1696 66.4753 19.4488 66.6425 19.7155C66.8122 19.9822 67.002 20.2315 67.2141 20.4658C67.4263 20.7026 67.6559 20.917 67.9031 21.1139C68.1502 21.3109 68.4123 21.4854 68.6894 21.6374C68.9664 21.7895 69.2535 21.9191 69.553 22.0238C69.8501 22.1285 70.1571 22.2058 70.4691 22.2606C70.7811 22.313 71.0957 22.3404 71.4102 22.3404C72.4436 22.3578 73.3921 22.0886 74.2583 21.5277C74.765 21.2186 75.3042 20.9893 75.8084 20.7126" stroke="#6594F4" stroke-width="3.68649" stroke-linecap="round" stroke-linejoin="round"/>
<path d="M57.8235 19.4039C58.0531 18.8979 58.2303 18.3619 58.4999 17.8808C58.6347 17.6465 58.7545 17.4047 58.8619 17.1554C58.9692 16.9086 59.064 16.6544 59.1439 16.3951C59.2238 16.1383 59.2887 15.8766 59.3411 15.6099C59.3935 15.3456 59.431 15.0764 59.4534 14.8072C59.4759 14.538 59.4834 14.2688 59.4784 13.9995C59.4709 13.7278 59.451 13.4586 59.416 13.1919C59.3811 12.9226 59.3311 12.6584 59.2662 12.3942C59.2038 12.1324 59.1264 11.8732 59.0341 11.6189C58.9417 11.3647 58.8369 11.1154 58.7196 10.8711C58.5998 10.6293 58.47 10.3925 58.3252 10.1631C58.1804 9.93379 58.0256 9.71443 57.8584 9.50254C57.6887 9.28816 57.5114 9.08624 57.3217 8.8943C57.132 8.69986 56.9323 8.51789 56.7226 8.34589C56.513 8.17388 56.2958 8.01434 56.0687 7.86478C55.8415 7.7177 55.6094 7.5806 55.3672 7.45845C55.1251 7.33381 54.878 7.22413 54.6259 7.12691C54.3713 7.02969 54.1142 6.94743 53.8521 6.87763C53.59 6.80783 53.3254 6.75299 53.0583 6.71311C52.7887 6.67322 52.5191 6.6458 52.2495 6.63334C51.9774 6.62088 51.7079 6.62337 51.4358 6.64082C51.1662 6.65827 50.8966 6.69067 50.6295 6.73554C50.3624 6.78291 50.0978 6.84273 49.8382 6.91502C49.5786 6.98981 49.3215 7.07955 49.0694 7.17926C48.8198 7.28146 48.5752 7.39613 48.3356 7.52327C48.0959 7.65289 47.8638 7.79249 47.6416 7.94455C47.417 8.0991 47.2023 8.26362 46.9976 8.43812C46.7904 8.61511 46.5957 8.79957 46.4085 8.9965C46.2238 9.19343 46.0491 9.40034 45.8843 9.61472C45.7196 9.83159 45.5698 10.0559 45.43 10.2878C45.2902 10.5196 45.1629 10.7564 45.0506 11.0032C44.9358 11.2475 44.8359 11.4993 44.7486 11.756C44.6612 12.0103 44.5888 12.272 44.5289 12.5338C44.3492 13.3165 44.2968 14.1092 44.3766 14.9069C44.454 15.7071 44.6587 16.4724 44.9882 17.2053C44.9882 17.2476 45.0681 17.2701 45.0856 17.3025C45.802 19.8102 47.8513 20.8198 50.0629 21.4704C50.6195 21.6275 51.1887 21.7172 51.7678 21.7396C52.3444 21.7621 52.9185 21.7172 53.4851 21.6025C54.0543 21.4879 54.6009 21.3109 55.1251 21.0666C55.6493 20.8223 56.1385 20.5207 56.5903 20.1592C56.9223 19.8426 57.3067 19.6233 57.7511 19.5011" stroke="#6594F4" stroke-width="3.68649" stroke-linecap="round" stroke-linejoin="round"/>
<path d="M32.6723 22.3578C33.5384 22.3504 34.3572 22.1559 35.131 21.7695C35.9048 21.3857 36.5538 20.8522 37.0805 20.1667C37.4474 19.7479 37.742 19.2842 37.9616 18.7707C38.1813 18.2597 38.3186 17.7262 38.3685 17.1704C38.4184 16.617 38.381 16.066 38.2587 15.5251C38.1339 14.9817 37.9292 14.4707 37.6421 13.992C37.3875 13.476 37.058 13.0124 36.6512 12.6061C36.2443 12.1972 35.785 11.8632 35.2683 11.6064C34.7516 11.3472 34.2099 11.1777 33.6383 11.0979C33.0667 11.0181 32.4975 11.0306 31.9309 11.1353C31.7063 11.1652 31.4841 11.2076 31.2644 11.2624C31.0448 11.3198 30.8301 11.3896 30.6179 11.4693C30.4058 11.5516 30.2011 11.6463 30.0014 11.7535C29.8017 11.8607 29.607 11.9779 29.4223 12.1075C29.2376 12.2371 29.0603 12.3767 28.8906 12.5288C28.7209 12.6783 28.5636 12.8404 28.4138 13.0099C28.2641 13.1794 28.1268 13.3589 27.997 13.5458C27.8697 13.7303 27.7523 13.9247 27.65 14.1267C27.5452 14.3261 27.4528 14.533 27.3729 14.7449C27.2931 14.9543 27.2257 15.1711 27.1732 15.3905C27.1183 15.6099 27.0784 15.8317 27.0509 16.0561C27.0235 16.2804 27.011 16.5073 27.011 16.7316C27.011 16.9585 27.026 17.1828 27.0534 17.4072C27.0809 17.6315 27.1208 17.8534 27.1757 18.0727C27.2306 18.2921 27.2955 18.509 27.3779 18.7209C27.4578 18.9328 27.5502 19.1372 27.655 19.3391C28.1218 20.2041 28.7733 20.8946 29.612 21.4131C30.4157 21.9839 31.3119 22.2556 32.2979 22.2257C32.3952 22.2457 32.4901 22.2756 32.5824 22.3155" stroke="#6594F4" stroke-width="3.68649" stroke-linecap="round" stroke-linejoin="round"/>
<path d="M45.877 19.3042C44.0074 20.7774 42.0404 22.1036 40.5976 24.0579C39.7065 25.2445 39.0275 26.5407 38.5582 27.9467C38.0915 29.3526 37.8543 30.7959 37.8543 32.2766C37.8069 36.8584 37.8543 41.4302 37.8543 46.0119" stroke="#6594F4" stroke-width="3.68649" stroke-linecap="round" stroke-linejoin="round"/>
<path d="M57.9209 19.5011C59.1041 20.7126 60.6068 21.5601 61.7575 22.829C62.3641 23.4746 62.9032 24.1726 63.3775 24.9229C63.8493 25.6732 64.2462 26.461 64.5657 27.2886C64.8852 28.1137 65.1223 28.9637 65.2771 29.8362C65.4318 30.7062 65.5017 31.5861 65.4868 32.4711C65.4868 35.2306 65.4868 37.9976 65.4868 40.7646V46.1989" stroke="#6594F4" stroke-width="3.68649" stroke-linecap="round" stroke-linejoin="round"/>
<path d="M27.9894 20.6403C26.5017 21.6574 25.1937 22.8689 24.0629 24.2698C23.4289 25.1573 22.9471 26.1245 22.6176 27.164C22.2881 28.2059 22.1284 29.2729 22.1384 30.3647C22.1384 33.4159 22.1384 36.467 22.1384 39.5182" stroke="#6594F4" stroke-width="3.68649" stroke-linecap="round" stroke-linejoin="round"/>
</svg>
