<svg width="488" height="488" viewBox="0 0 488 488" fill="none" xmlns="http://www.w3.org/2000/svg">
<path d="M4 19.4595V126.541C4 135.079 10.9215 142 19.4595 142H40.8919C49.1762 142 55.8919 148.716 55.8919 157C55.8919 165.284 49.1762 172 40.8919 172H19.4595C10.9214 172 4 178.921 4 187.459V300.541C4 309.079 10.9215 316 19.4595 316H43.8919C50.5193 316 55.8919 321.373 55.8919 328C55.8919 334.627 50.5193 340 43.8919 340H19.4595C10.9214 340 4 346.921 4 355.459V468.541C4 477.079 10.9215 484 19.4595 484H468.541C477.079 484 484 477.079 484 468.541V355.459C484 346.921 477.079 340 468.541 340H437.622C430.994 340 425.622 334.627 425.622 328C425.622 321.373 430.994 316 437.622 316H468.541C477.079 316 484 309.079 484 300.541V187.459C484 178.921 477.079 172 468.541 172H440.622C432.337 172 425.622 165.284 425.622 157C425.622 148.716 432.337 142 440.622 142H468.541C477.079 142 484 135.079 484 126.541V19.4595C484 10.9214 477.079 4 468.541 4H19.4595C10.9214 4 4 10.9214 4 19.4595Z" fill="#D1C4E9" stroke="#D1C4E9" stroke-width="7.72973"/>
<path d="M172.626 223.511C172.256 219.779 170.667 216.88 167.861 214.814C165.055 212.748 161.246 211.715 156.436 211.715C153.167 211.715 150.407 212.178 148.156 213.103C145.904 213.997 144.177 215.246 142.975 216.85C141.803 218.453 141.217 220.273 141.217 222.308C141.155 224.004 141.51 225.484 142.281 226.749C143.083 228.013 144.177 229.108 145.565 230.033C146.953 230.927 148.556 231.714 150.376 232.392C152.195 233.04 154.138 233.595 156.204 234.057L164.716 236.093C168.848 237.018 172.641 238.251 176.095 239.793C179.549 241.335 182.54 243.232 185.069 245.483C187.598 247.734 189.556 250.386 190.944 253.439C192.362 256.492 193.087 259.992 193.118 263.939C193.087 269.737 191.607 274.764 188.677 279.019C185.778 283.244 181.584 286.528 176.095 288.872C170.637 291.185 164.053 292.341 156.343 292.341C148.695 292.341 142.034 291.17 136.36 288.826C130.717 286.482 126.307 283.013 123.13 278.418C119.985 273.792 118.335 268.072 118.181 261.257H137.563C137.778 264.433 138.688 267.085 140.292 269.213C141.926 271.31 144.1 272.898 146.814 273.977C149.559 275.026 152.658 275.55 156.112 275.55C159.504 275.55 162.449 275.057 164.947 274.07C167.476 273.083 169.434 271.711 170.822 269.953C172.209 268.195 172.903 266.175 172.903 263.893C172.903 261.765 172.271 259.977 171.007 258.527C169.773 257.078 167.954 255.844 165.548 254.827C163.174 253.809 160.26 252.884 156.806 252.051L146.49 249.461C138.503 247.518 132.197 244.481 127.571 240.348C122.945 236.216 120.648 230.65 120.679 223.649C120.648 217.913 122.174 212.902 125.258 208.616C128.373 204.329 132.644 200.983 138.071 198.578C143.499 196.173 149.667 194.97 156.574 194.97C163.605 194.97 169.742 196.173 174.985 198.578C180.258 200.983 184.36 204.329 187.289 208.616C190.219 212.902 191.73 217.867 191.822 223.511H172.626ZM242.347 258.065H259.37L267.927 269.074L276.346 278.881L292.212 298.771H273.524L262.608 285.357L257.01 277.4L242.347 258.065ZM293.646 243.633C293.646 253.963 291.688 262.752 287.772 269.999C283.886 277.246 278.582 282.782 271.859 286.606C265.167 290.399 257.643 292.295 249.286 292.295C240.867 292.295 233.311 290.383 226.619 286.559C219.928 282.735 214.639 277.2 210.753 269.953C206.868 262.706 204.925 253.932 204.925 243.633C204.925 233.302 206.868 224.513 210.753 217.266C214.639 210.019 219.928 204.499 226.619 200.706C233.311 196.882 240.867 194.97 249.286 194.97C257.643 194.97 265.167 196.882 271.859 200.706C278.582 204.499 283.886 210.019 287.772 217.266C291.688 224.513 293.646 233.302 293.646 243.633ZM273.339 243.633C273.339 236.941 272.337 231.297 270.333 226.702C268.359 222.107 265.568 218.623 261.96 216.248C258.352 213.874 254.127 212.686 249.286 212.686C244.444 212.686 240.219 213.874 236.611 216.248C233.003 218.623 230.197 222.107 228.192 226.702C226.219 231.297 225.232 236.941 225.232 243.633C225.232 250.324 226.219 255.968 228.192 260.563C230.197 265.158 233.003 268.642 236.611 271.017C240.219 273.391 244.444 274.579 249.286 274.579C254.127 274.579 258.352 273.391 261.96 271.017C265.568 268.642 268.359 265.158 270.333 260.563C272.337 255.968 273.339 250.324 273.339 243.633ZM308.483 291V196.265H328.513V274.486H369.127V291H308.483Z" fill="#522EA9"/>
</svg>
